<svg xmlns="http://www.w3.org/2000/svg" viewBox="0 0 64 64" role="img" aria-label="CookieCode concept C">
  <path
    d="M30 8C17.85 8 8 17.85 8 30c0 9.2 6.2 17 14.6 19.4.6-3.4 3.4-6.2 7.2-7.2 5.8-1.4 10.2-6.8 10.2-13.2 0-1.6-.3-3.1-.8-4.5 1.9-2.1 3.1-4.9 3.1-8 0-6.4-5.2-11.6-11.7-11.6-3.4 0-6.4 1.4-8.6 3.7C29.1 8.5 29.5 8 30 8z"
    fill="#f59e0b"
    stroke="#374151"
    stroke-width="2"
    stroke-linejoin="round"
  />
  <path
    d="M36 14c-8.8 0-16 7.2-16 16s7.2 16 16 16c3.2 0 6.2-.9 8.7-2.6 1.7-1.2 3.1-2.9 4.1-4.9 1.5-3 2.3-6.4 2.3-9.9 0-5.6-4.6-10.2-10.2-10.2-2.8 0-5.3 1.1-7.2 2.9C33.2 14.8 34.6 14 36 14z"
    fill="#d97706"
    stroke="#374151"
    stroke-width="2"
    stroke-linejoin="round"
  />
  <text
    x="32"
    y="35"
    text-anchor="middle"
    fill="#f9fafb"
    font-family="ui-monospace, SFMono-Regular, Menlo, monospace"
    font-size="13"
    font-weight="800"
    letter-spacing="-1"
  >CC</text>
</svg>
