<svg xmlns="http://www.w3.org/2000/svg" viewBox="0 0 64 64" role="img" aria-label="CookieCode concept B">
  <path
    d="M32 8C19.85 8 10 17.85 10 30c0 9.2 6.2 17 14.6 19.4.6-3.4 3.4-6.2 7.2-7.2 5.8-1.4 10.2-6.8 10.2-13.2 0-1.6-.3-3.1-.8-4.5 1.9-2.1 3.1-4.9 3.1-8 0-6.4-5.2-11.6-11.7-11.6-3.4 0-6.4 1.4-8.6 3.7C31.1 8.5 31.5 8 32 8z"
    fill="#f59e0b"
    stroke="#374151"
    stroke-width="2"
    stroke-linejoin="round"
  />
  <rect x="22" y="28" width="14" height="3" rx="1" fill="#111827"/>
  <polygon points="36,26.5 40,29.5 36,32.5" fill="#f9fafb"/>
  <rect x="38" y="27.5" width="2" height="4" rx="0.5" fill="#f9fafb">
    <animate attributeName="opacity" values="1;0.2;1" dur="1.2s" repeatCount="indefinite"/>
  </rect>
</svg>
